<?xml version="1.0" encoding="UTF-8"?><!DOCTYPE svg PUBLIC "-//W3C//DTD SVG 1.1//EN" "http://www.w3.org/Graphics/SVG/1.1/DTD/svg11.dtd"><svg xmlns="http://www.w3.org/2000/svg"><symbol id="preloader" viewBox="0 0 491.128 491.128"><path d="M213.153 436.584a46.363 46.363 0 0 0 12.912-9.115c12.625-12.617 15.977-45.43 15.977-45.43s-32.813 3.359-45.421 15.978c-8.789 8.787-13.096 19.566-12.227 28.074-40.67-20.011-50.931-42.173-58.254-58.277.414.566-.963-1.376.924 1.251-7.937-17.513-12.235-35.367-8.972-54.361 2.245-10.532 5.365-18.738 9.043-25.465 10.046 15.523 27.113 26.555 39.523 32.923a4.275 4.275 0 0 0 5.031-.843 4.277 4.277 0 0 0 .652-5.056c-11.305-20.258-10.277-44.41-8-59.448 4.76-2.722 9.425-5.556 13.763-9.09 33.067-26.921 47.149-81.743 22.535-105.768-24.596-24.032-87.602-5.843-111.627 18.754l-.716.732c-10.389 10.628-19.639 21.582-27.551 33.044-13.357 3.159-29.708 4.752-45.501-.326a4.262 4.262 0 0 0-4.824 1.641 4.276 4.276 0 0 0 .159 5.094c7.18 9.027 18.142 20.537 31.427 28.139-10.635 26.144-14.695 55.221-9.982 89.053 16.351 103.167 99.273 134.736 152.185 127.461l.319-.039c-1.617 8.707 2.762 20.321 12.092 29.644 12.608 12.624 45.429 15.977 45.429 15.977s-3.36-32.813-15.977-45.43a46.03 46.03 0 0 0-12.919-9.117zm267.396-146.352c-7.188-9.027-18.142-20.545-31.429-28.139 10.636-26.142 14.695-55.221 9.982-89.052C442.753 69.875 359.83 38.305 306.918 45.58l-.326.041c1.616-8.709-2.763-20.322-12.092-29.645C281.89 3.352 249.069 0 249.069 0s3.36 32.813 15.977 45.429a46.054 46.054 0 0 0 12.92 9.115 46.402 46.402 0 0 0-12.912 9.114c-12.625 12.625-15.977 45.43-15.977 45.43s32.813-3.358 45.423-15.977c8.787-8.787 13.095-19.566 12.227-28.083 40.677 20.012 50.93 42.182 58.261 58.285-.414-.565.963 1.376-.923-1.25 7.936 17.512 12.234 35.368 8.972 54.361-2.245 10.531-5.367 18.738-9.043 25.465-10.046-15.521-27.113-26.548-39.524-32.924a4.274 4.274 0 0 0-5.03.843 4.275 4.275 0 0 0-.654 5.056c11.305 20.251 10.277 44.41 8 59.448-4.761 2.723-9.425 5.556-13.763 9.09-33.067 26.923-47.149 81.744-22.535 105.77 24.597 24.031 87.603 5.843 111.626-18.755l.718-.732c10.388-10.627 19.63-21.581 27.55-33.044 13.358-3.159 29.709-4.752 45.501.326a4.259 4.259 0 0 0 4.824-1.64 4.276 4.276 0 0 0-.158-5.095z" fill="#FFDA44"/></symbol></svg>